<svg xmlns="http://www.w3.org/2000/svg" viewBox="0 0 64 64"><rect width="64" height="64" rx="14" fill="#0d0b0a"/><defs><linearGradient id="f" x1="0" y1="1" x2="0" y2="0"><stop offset="0" stop-color="#d7261e"/><stop offset=".55" stop-color="#ff5a1f"/><stop offset="1" stop-color="#ffc15a"/></linearGradient></defs><path d="M32 8c3.5 9.5 14 15.5 14 29.5a14 14 0 0 1-28 0c0-7 3.5-10.5 6-14 0 4.7 2.3 8.2 4.7 9.4C27.5 23.5 29.7 15 32 8z" fill="url(#f)"/><path d="M32 36c2.3 3.5 5.8 5.8 5.8 10.5a5.8 5.8 0 0 1-11.6 0c0-3.5 3.5-5.8 5.8-10.5z" fill="#fff1e0"/></svg>
